<?xml version="1.0" encoding="UTF-8"?>
<!DOCTYPE svg PUBLIC "-//W3C//DTD SVG 1.1//EN" "http://www.w3.org/Graphics/SVG/1.1/DTD/svg11.dtd">
<svg version="1.2" width="96.79mm" height="90.69mm" viewBox="0 0 9679 9069" preserveAspectRatio="xMidYMid" fill-rule="evenodd" stroke-width="28.222" stroke-linejoin="round" xmlns="http://www.w3.org/2000/svg" xmlns:ooo="http://xml.openoffice.org/svg/export" xmlns:xlink="http://www.w3.org/1999/xlink" xmlns:presentation="http://sun.com/xmlns/staroffice/presentation" xmlns:smil="http://www.w3.org/2001/SMIL20/" xmlns:anim="urn:oasis:names:tc:opendocument:xmlns:animation:1.0" xml:space="preserve">
 <defs class="ClipPathGroup">
  <clipPath id="presentation_clip_path" clipPathUnits="userSpaceOnUse">
   <rect x="0" y="0" width="9679" height="9069"/>
  </clipPath>
  <clipPath id="presentation_clip_path_shrink" clipPathUnits="userSpaceOnUse">
   <rect x="9" y="9" width="9660" height="9051"/>
  </clipPath>
 </defs>
 <defs class="TextShapeIndex">
  <g ooo:slide="id1" ooo:id-list="id3 id4"/>
 </defs>
 <defs class="EmbeddedBulletChars">
  <g id="bullet-char-template-57356" transform="scale(0.00048828125,-0.00048828125)">
   <path d="M 580,1141 L 1163,571 580,0 -4,571 580,1141 Z"/>
  </g>
  <g id="bullet-char-template-57354" transform="scale(0.00048828125,-0.00048828125)">
   <path d="M 8,1128 L 1137,1128 1137,0 8,0 8,1128 Z"/>
  </g>
  <g id="bullet-char-template-10146" transform="scale(0.00048828125,-0.00048828125)">
   <path d="M 174,0 L 602,739 174,1481 1456,739 174,0 Z M 1358,739 L 309,1346 659,739 1358,739 Z"/>
  </g>
  <g id="bullet-char-template-10132" transform="scale(0.00048828125,-0.00048828125)">
   <path d="M 2015,739 L 1276,0 717,0 1260,543 174,543 174,936 1260,936 717,1481 1274,1481 2015,739 Z"/>
  </g>
  <g id="bullet-char-template-10007" transform="scale(0.00048828125,-0.00048828125)">
   <path d="M 0,-2 C -7,14 -16,27 -25,37 L 356,567 C 262,823 215,952 215,954 215,979 228,992 255,992 264,992 276,990 289,987 310,991 331,999 354,1012 L 381,999 492,748 772,1049 836,1024 860,1049 C 881,1039 901,1025 922,1006 886,937 835,863 770,784 769,783 710,716 594,584 L 774,223 C 774,196 753,168 711,139 L 727,119 C 717,90 699,76 672,76 641,76 570,178 457,381 L 164,-76 C 142,-110 111,-127 72,-127 30,-127 9,-110 8,-76 1,-67 -2,-52 -2,-32 -2,-23 -1,-13 0,-2 Z"/>
  </g>
  <g id="bullet-char-template-10004" transform="scale(0.00048828125,-0.00048828125)">
   <path d="M 285,-33 C 182,-33 111,30 74,156 52,228 41,333 41,471 41,549 55,616 82,672 116,743 169,778 240,778 293,778 328,747 346,684 L 369,508 C 377,444 397,411 428,410 L 1163,1116 C 1174,1127 1196,1133 1229,1133 1271,1133 1292,1118 1292,1087 L 1292,965 C 1292,929 1282,901 1262,881 L 442,47 C 390,-6 338,-33 285,-33 Z"/>
  </g>
  <g id="bullet-char-template-9679" transform="scale(0.00048828125,-0.00048828125)">
   <path d="M 813,0 C 632,0 489,54 383,161 276,268 223,411 223,592 223,773 276,916 383,1023 489,1130 632,1184 813,1184 992,1184 1136,1130 1245,1023 1353,916 1407,772 1407,592 1407,412 1353,268 1245,161 1136,54 992,0 813,0 Z"/>
  </g>
  <g id="bullet-char-template-8226" transform="scale(0.00048828125,-0.00048828125)">
   <path d="M 346,457 C 273,457 209,483 155,535 101,586 74,649 74,723 74,796 101,859 155,911 209,963 273,989 346,989 419,989 480,963 531,910 582,859 608,796 608,723 608,648 583,586 532,535 482,483 420,457 346,457 Z"/>
  </g>
  <g id="bullet-char-template-8211" transform="scale(0.00048828125,-0.00048828125)">
   <path d="M -4,459 L 1135,459 1135,606 -4,606 -4,459 Z"/>
  </g>
  <g id="bullet-char-template-61548" transform="scale(0.00048828125,-0.00048828125)">
   <path d="M 173,740 C 173,903 231,1043 346,1159 462,1274 601,1332 765,1332 928,1332 1067,1274 1183,1159 1299,1043 1357,903 1357,740 1357,577 1299,437 1183,322 1067,206 928,148 765,148 601,148 462,206 346,322 231,437 173,577 173,740 Z"/>
  </g>
 </defs>
 <g>
  <g id="id2" class="Master_Slide">
   <g id="bg-id2" class="Background"/>
   <g id="bo-id2" class="BackgroundObjects"/>
  </g>
 </g>
 <g class="SlideGroup">
  <g>
   <g id="container-id1">
    <g id="id1" class="Slide" clip-path="url(#presentation_clip_path)">
     <g class="Page">
      <g class="Graphic">
       <g id="id3">
        <rect class="BoundingBox" stroke="none" fill="none" x="4" y="6" width="9679" height="9069"/>
        <defs>
         <mask id="mask1">
          <g>
           <defs>
            <linearGradient id="gradient1" x1="4843" y1="-331" x2="4843" y2="9411" gradientUnits="userSpaceOnUse">
             <stop offset="0.5" style="stop-color:rgb(153,153,153)"/>
             <stop offset="0.5" style="stop-color:rgb(153,153,153)"/>
             <stop offset="1" style="stop-color:rgb(153,153,153)"/>
             <stop offset="1" style="stop-color:rgb(153,153,153)"/>
            </linearGradient>
           </defs>
           <path style="fill:url(#gradient1)" d="M -333,-331 L 10019,-331 10019,9411 -333,9411 -333,-331 Z"/>
          </g>
         </mask>
        </defs>
        <g style="mask:url(#mask1)">
         <path fill="none" stroke="rgb(109,238,118)" stroke-width="318" stroke-linejoin="round" d="M 4843,845 L 4843,4445"/>
         <path fill="rgb(109,238,118)" stroke="none" d="M 4408,2246 L 4408,1850 4043,1850 4843,545 5640,1850 5275,1850 5275,2246 4408,2246 4408,2246 4408,2246 4408,2246 Z"/>
         <path fill="none" stroke="rgb(97,153,225)" stroke-width="28" stroke-linejoin="round" d="M 4408,2246 L 4408,1850 4043,1850 4843,545 5640,1850 5275,1850 5275,2246 4408,2246 4408,2246 4408,2246 4408,2246 Z"/>
         <path fill="rgb(255,211,91)" stroke="none" d="M 4845,1612 L 5074,924 4617,924 4845,1612 4845,1612 4845,1612 Z"/>
         <path fill="rgb(109,238,118)" stroke="none" d="M 4846,1399 L 5036,831 4658,831 4846,1399 4846,1399 Z"/>
        </g>
       </g>
      </g>
      <g class="Graphic">
       <g id="id4">
        <rect class="BoundingBox" stroke="none" fill="none" x="4141" y="480" width="1402" height="1403"/>
        <defs>
         <mask id="mask2">
          <g>
           <defs>
            <linearGradient id="gradient2" x1="4841" y1="481" x2="4841" y2="1881" gradientUnits="userSpaceOnUse">
             <stop offset="0.5" style="stop-color:rgb(153,153,153)"/>
             <stop offset="0.5" style="stop-color:rgb(153,153,153)"/>
             <stop offset="1" style="stop-color:rgb(153,153,153)"/>
             <stop offset="1" style="stop-color:rgb(153,153,153)"/>
            </linearGradient>
           </defs>
           <path style="fill:url(#gradient2)" d="M 4141,481 L 5541,481 5541,1881 4141,1881 4141,481 Z"/>
          </g>
         </mask>
        </defs>
        <g style="mask:url(#mask2)">
         <defs>
          <clipPath id="clip_path_1" clipPathUnits="userSpaceOnUse">
           <path d="M 4141,1181 L 4841,481 5541,1181 4841,1881 4141,1181 Z"/>
          </clipPath>
         </defs>
         <g clip-path="url(#clip_path_1)">
          <path fill="rgb(0,0,0)" stroke="none" d="M 4841,1146 C 4830,1146 4822,1155 4822,1166 4822,1176 4830,1185 4841,1185 4852,1185 4860,1176 4860,1166 4860,1155 4852,1146 4841,1146 L 4841,1146 Z"/>
          <path fill="rgb(0,0,0)" stroke="none" d="M 4841,798 C 4788,798 4744,842 4744,895 4744,948 4788,992 4841,992 4894,992 4938,948 4938,895 4938,842 4894,798 4841,798 L 4841,798 Z M 4899,895 C 4899,927 4873,953 4841,953 4809,953 4783,927 4783,895 4783,863 4809,837 4841,837 4873,837 4899,863 4899,895 L 4899,895 Z"/>
          <path fill="rgb(0,0,0)" stroke="none" d="M 4841,489 C 4836,489 4831,491 4827,495 4824,498 4753,575 4697,693 4651,788 4628,882 4628,972 4628,993 4629,1013 4631,1034 4560,1052 4532,1096 4522,1131 4498,1211 4541,1319 4595,1373 4601,1378 4609,1380 4616,1377 4619,1376 4621,1375 4623,1373 4626,1369 4628,1364 4628,1359 4628,1304 4664,1272 4676,1262 L 4686,1262 C 4699,1294 4714,1324 4730,1351 4736,1361 4745,1369 4755,1373 4748,1393 4744,1414 4744,1436 4744,1507 4823,1600 4826,1604 4830,1608 4835,1610 4841,1610 4846,1610 4851,1608 4855,1605 4855,1604 4855,1604 4856,1604 4859,1600 4938,1507 4938,1436 4938,1414 4934,1393 4927,1374 4938,1369 4947,1361 4952,1351 4968,1324 4983,1294 4996,1262 L 5006,1262 C 5018,1272 5054,1304 5054,1359 5054,1367 5058,1374 5066,1377 5073,1380 5081,1378 5087,1373 5141,1319 5184,1211 5160,1131 5150,1096 5122,1052 5051,1034 5053,1013 5054,993 5054,972 5054,882 5031,788 4985,693 4929,575 4858,498 4855,495 4852,491 4846,489 4841,489 L 4841,489 Z M 4596,1313 C 4564,1263 4543,1193 4559,1142 4569,1108 4595,1084 4635,1073 4642,1124 4654,1175 4671,1224 4671,1224 4666,1223 4660,1227 4658,1228 4614,1257 4596,1313 L 4596,1313 Z M 4899,1436 C 4899,1474 4865,1528 4841,1560 4817,1528 4783,1474 4783,1436 4783,1415 4787,1395 4795,1378 L 4887,1378 C 4895,1395 4899,1415 4899,1436 L 4899,1436 Z M 4919,1332 C 4916,1337 4910,1340 4903,1340 4868,1340 4854,1340 4850,1340 4842,1340 4822,1340 4779,1340 4772,1340 4766,1337 4763,1332 4750,1310 4739,1287 4728,1262 L 4954,1262 C 4943,1287 4932,1310 4919,1332 L 4919,1332 Z M 5123,1142 C 5139,1193 5118,1263 5086,1313 5074,1275 5046,1241 5022,1226 5016,1223 5011,1224 5011,1224 5028,1175 5040,1124 5047,1073 5087,1084 5113,1108 5123,1142 L 5123,1142 Z M 5015,972 C 5015,997 5014,1022 5011,1047 5005,1107 4991,1167 4970,1224 L 4712,1224 C 4691,1167 4678,1107 4671,1047 4668,1022 4667,997 4667,972 4667,891 4687,807 4726,721 L 4956,721 C 4995,807 5015,891 5015,972 L 5015,972 Z M 4937,682 L 4745,682 C 4781,614 4821,563 4841,538 4861,563 4901,614 4937,682 L 4937,682 Z"/>
          <path fill="rgb(0,0,0)" stroke="none" d="M 5034,1417 C 5024,1417 5015,1426 5015,1436 L 5015,1514 C 5015,1524 5024,1533 5034,1533 5045,1533 5054,1524 5054,1514 L 5054,1436 C 5054,1426 5045,1417 5034,1417 L 5034,1417 Z"/>
          <path fill="rgb(0,0,0)" stroke="none" d="M 4648,1417 C 4637,1417 4628,1426 4628,1436 L 4628,1514 C 4628,1524 4637,1533 4648,1533 4658,1533 4667,1524 4667,1514 L 4667,1436 C 4667,1426 4658,1417 4648,1417 L 4648,1417 Z"/>
          <path fill="rgb(0,0,0)" stroke="none" d="M 4957,1533 C 4946,1533 4938,1542 4938,1552 L 4938,1738 C 4938,1748 4946,1757 4957,1757 4968,1757 4976,1748 4976,1738 L 4976,1552 C 4976,1542 4968,1533 4957,1533 L 4957,1533 Z"/>
          <path fill="rgb(0,0,0)" stroke="none" d="M 4848,1642 C 4837,1642 4828,1651 4828,1662 L 4828,1847 C 4828,1858 4837,1866 4848,1866 4858,1866 4867,1858 4867,1847 L 4867,1662 C 4867,1651 4858,1642 4848,1642 L 4848,1642 Z"/>
          <path fill="rgb(0,0,0)" stroke="none" d="M 4725,1533 C 4714,1533 4706,1542 4706,1552 L 4706,1738 C 4706,1748 4714,1757 4725,1757 4736,1757 4744,1748 4744,1738 L 4744,1552 C 4744,1542 4736,1533 4725,1533 L 4725,1533 Z"/>
          <path fill="rgb(0,0,0)" stroke="none" d="M 4841,1030 C 4830,1030 4822,1039 4822,1050 L 4822,1088 C 4822,1099 4830,1108 4841,1108 4852,1108 4860,1099 4860,1088 L 4860,1050 C 4860,1039 4852,1030 4841,1030 L 4841,1030 Z"/>
         </g>
        </g>
       </g>
      </g>
     </g>
    </g>
   </g>
  </g>
 </g>
</svg>